<?xml version="1.0" encoding="utf-8" ?>
<svg baseProfile="full" height="1000px" version="1.1" width="1600px" xmlns="http://www.w3.org/2000/svg" xmlns:ev="http://www.w3.org/2001/xml-events" xmlns:xlink="http://www.w3.org/1999/xlink"><defs><style type="text/css"><![CDATA[
        .text { font-family: Arial, sans-serif; fill: #333; }
        .title { font-size: 24px; font-weight: bold; }
        .label { font-size: 14px; }
        .pin-label { font-size: 12px; fill: #555; }
        .component-box { fill: #f8f9fa; stroke: #333; stroke-width: 2; }
        .module-box { fill: #e3f2fd; stroke: #1565c0; stroke-width: 2; }
        .sensor-box { fill: #e8f5e9; stroke: #2e7d32; stroke-width: 2; }
        .wire-5v { stroke: #d32f2f; stroke-width: 2; fill: none; }
        .wire-3v3 { stroke: #f57c00; stroke-width: 2; fill: none; }
        .wire-gnd { stroke: #212121; stroke-width: 2; fill: none; }
        .wire-i2c { stroke: #1976d2; stroke-width: 2; fill: none; }
        .wire-signal { stroke: #388e3c; stroke-width: 2; fill: none; }
        .wire-bus { stroke: #666; stroke-width: 4; stroke-opacity: 0.2; fill: none; }
        .conn-dot { fill: #000; }
    ]]></style></defs><text class="text title" text-anchor="middle" x="800" y="40">WaterSafe V2 - Corrected Wiring Diagram</text><text class="text label" text-anchor="middle" x="800" y="70">Includes: OLED Display, ADS1115 (3.3V Logic Safe), Corrected DS18B20 Power</text><text class="text label" fill="#d32f2f" x="50" y="100">5V Rail</text><line class="wire-5v" x1="100" x2="1550" y1="95" y2="95" /><text class="text label" fill="#212121" x="50" y="950">GND Rail</text><line class="wire-gnd" x1="100" x2="1550" y1="945" y2="945" /><rect class="component-box" height="300" rx="5" ry="5" width="200" x="200" y="300" /><text class="text title" font-size="16px" text-anchor="middle" x="300.0" y="325">ESP32</text><text class="text label" text-anchor="middle" x="300.0" y="345">DevKit V1</text><text class="text pin-label" text-anchor="start" x="205" y="354">VIN (5V)</text><circle cx="200" cy="350" fill="black" r="3" stroke="none" /><text class="text pin-label" text-anchor="start" x="205" y="554">GND</text><circle cx="200" cy="550" fill="black" r="3" stroke="none" /><text class="text pin-label" text-anchor="start" x="205" y="384">3V3 Out</text><circle cx="200" cy="380" fill="black" r="3" stroke="none" /><text class="text pin-label" text-anchor="end" x="395" y="534">G21 (SDA)</text><circle cx="400" cy="530" fill="black" r="3" stroke="none" /><text class="text pin-label" text-anchor="end" x="395" y="554">G22 (SCL)</text><circle cx="400" cy="550" fill="black" r="3" stroke="none" /><text class="text pin-label" text-anchor="end" x="395" y="404">G4 (Temp)</text><circle cx="400" cy="400" fill="black" r="3" stroke="none" /><polyline class="wire-5v" points="200,350 100,350 100,95" /><polyline class="wire-gnd" points="200,550 100,550 100,945" /><line class="wire-3v3" x1="300" x2="900" y1="200" y2="200" /><text class="text label" fill="#f57c00" x="310" y="190">3.3V Logic Rail</text><polyline class="wire-3v3" points="200,380 180,380 180,200 300,200" /><rect class="module-box" height="120" rx="5" ry="5" width="150" x="500" y="450" /><text class="text title" font-size="16px" text-anchor="middle" x="575.0" y="475">OLED Display</text><text class="text label" text-anchor="middle" x="575.0" y="495">SSD1306 (0x3C)</text><text class="text pin-label" text-anchor="start" x="505" y="484">VCC</text><circle cx="500" cy="480" fill="black" r="3" stroke="none" /><text class="text pin-label" text-anchor="start" x="505" y="504">GND</text><circle cx="500" cy="500" fill="black" r="3" stroke="none" /><text class="text pin-label" text-anchor="start" x="505" y="524">SCL</text><circle cx="500" cy="520" fill="black" r="3" stroke="none" /><text class="text pin-label" text-anchor="start" x="505" y="544">SDA</text><circle cx="500" cy="540" fill="black" r="3" stroke="none" /><polyline class="wire-3v3" points="500,480 480,480 480,200" /><polyline class="wire-gnd" points="500,500 480,500 480,945" /><rect class="module-box" height="180" rx="5" ry="5" width="150" x="700" y="450" /><text class="text title" font-size="16px" text-anchor="middle" x="775.0" y="475">ADS1115 ADC</text><text class="text label" text-anchor="middle" x="775.0" y="495">Address: 0x48</text><text class="text pin-label" text-anchor="start" x="705" y="484">VDD</text><circle cx="700" cy="480" fill="black" r="3" stroke="none" /><text class="text pin-label" text-anchor="start" x="705" y="504">GND</text><circle cx="700" cy="500" fill="black" r="3" stroke="none" /><text class="text pin-label" text-anchor="start" x="705" y="524">ADDR</text><circle cx="700" cy="520" fill="black" r="3" stroke="none" /><text class="text pin-label" text-anchor="start" x="705" y="544">SCL</text><circle cx="700" cy="540" fill="black" r="3" stroke="none" /><text class="text pin-label" text-anchor="start" x="705" y="564">SDA</text><circle cx="700" cy="560" fill="black" r="3" stroke="none" /><text class="text pin-label" text-anchor="end" x="845" y="494">A0 (pH)</text><circle cx="850" cy="490" fill="black" r="3" stroke="none" /><text class="text pin-label" text-anchor="end" x="845" y="534">A1 (Turb)</text><circle cx="850" cy="530" fill="black" r="3" stroke="none" /><text class="text pin-label" text-anchor="end" x="845" y="574">A2 (TDS)</text><circle cx="850" cy="570" fill="black" r="3" stroke="none" /><polyline class="wire-3v3" points="700,480 680,480 680,200" /><polyline class="wire-gnd" points="700,500 680,500 680,945" /><polyline class="wire-gnd" points="700,520 660,520 660,945" /><polyline class="wire-i2c" points="400,550 460,550 460,520 500,520" /><polyline class="wire-i2c" points="500,520 460,520 660,540 700,540" /><polyline class="wire-i2c" points="400,530 440,530 440,540 500,540" /><polyline class="wire-i2c" points="500,540 440,540 640,560 700,560" /><rect class="sensor-box" height="100" rx="5" ry="5" width="150" x="1200" y="250" /><text class="text title" font-size="16px" text-anchor="middle" x="1275.0" y="275">pH Sensor</text><text class="text pin-label" text-anchor="start" x="1205" y="284">VCC</text><circle cx="1200" cy="280" fill="black" r="3" stroke="none" /><text class="text pin-label" text-anchor="start" x="1205" y="304">GND</text><circle cx="1200" cy="300" fill="black" r="3" stroke="none" /><text class="text pin-label" text-anchor="start" x="1205" y="324">Analog Out</text><circle cx="1200" cy="320" fill="black" r="3" stroke="none" /><polyline class="wire-5v" points="1200,280 1180,280 1180,95" /><polyline class="wire-gnd" points="1200,300 1180,300 1180,945" /><rect class="sensor-box" height="100" rx="5" ry="5" width="150" x="1200" y="450" /><text class="text title" font-size="16px" text-anchor="middle" x="1275.0" y="475">Turbidity</text><text class="text pin-label" text-anchor="start" x="1205" y="484">VCC</text><circle cx="1200" cy="480" fill="black" r="3" stroke="none" /><text class="text pin-label" text-anchor="start" x="1205" y="504">GND</text><circle cx="1200" cy="500" fill="black" r="3" stroke="none" /><text class="text pin-label" text-anchor="start" x="1205" y="524">Analog Out</text><circle cx="1200" cy="520" fill="black" r="3" stroke="none" /><polyline class="wire-5v" points="1200,480 1180,480 1180,95" /><polyline class="wire-gnd" points="1200,500 1180,500 1180,945" /><rect class="sensor-box" height="100" rx="5" ry="5" width="150" x="1200" y="650" /><text class="text title" font-size="16px" text-anchor="middle" x="1275.0" y="675">TDS Sensor</text><text class="text pin-label" text-anchor="start" x="1205" y="684">VCC</text><circle cx="1200" cy="680" fill="black" r="3" stroke="none" /><text class="text pin-label" text-anchor="start" x="1205" y="704">GND</text><circle cx="1200" cy="700" fill="black" r="3" stroke="none" /><text class="text pin-label" text-anchor="start" x="1205" y="724">Analog Out</text><circle cx="1200" cy="720" fill="black" r="3" stroke="none" /><polyline class="wire-5v" points="1200,680 1180,680 1180,95" /><polyline class="wire-gnd" points="1200,700 1180,700 1180,945" /><polyline class="wire-signal" points="1200,320 1100,320 1100,300" /><path d="M 1050,300 L 1055,297 L 1060,303 L 1065,297 L 1070,303 L 1075,300" fill="none" stroke="#333" stroke-width="2" /><text class="text pin-label" text-anchor="middle" x="1062" y="290">10k</text><polyline class="wire-signal" points="1100,300 1075,300" /><polyline class="wire-signal" points="1050,300 1040,300" /><circle cx="1040" cy="300" fill="black" r="3" /><polyline class="wire-signal" points="1040,300 870,300 870,490 850,490" /><polyline class="wire-signal" points="1040,300 1040,320" /><path d="M 1028,320 L 1033,317 L 1038,323 L 1043,317 L 1048,323 L 1053,320" fill="none" stroke="#333" stroke-width="2" /><text class="text pin-label" text-anchor="middle" x="1040" y="310">20k</text><path d="M 1040,320 L 1037,325 L 1043,330 L 1037,335 L 1043,340 L 1040,345" fill="none" stroke="#333" stroke-width="2" /><text class="text pin-label" x="1050" y="335">20k</text><polyline class="wire-gnd" points="1040,345 1040,945" /><polyline class="wire-signal" points="1200,520 1100,520 1100,500" /><path d="M 1050,500 L 1055,497 L 1060,503 L 1065,497 L 1070,503 L 1075,500" fill="none" stroke="#333" stroke-width="2" /><text class="text pin-label" text-anchor="middle" x="1062" y="490">10k</text><polyline class="wire-signal" points="1100,500 1075,500" /><polyline class="wire-signal" points="1050,500 1040,500" /><circle cx="1040" cy="500" fill="black" r="3" /><polyline class="wire-signal" points="1040,500 870,500 870,530 850,530" /><polyline class="wire-signal" points="1040,500 1040,520" /><path d="M 1028,520 L 1033,517 L 1038,523 L 1043,517 L 1048,523 L 1053,520" fill="none" stroke="#333" stroke-width="2" /><text class="text pin-label" text-anchor="middle" x="1040" y="510">20k</text><path d="M 1040,520 L 1037,525 L 1043,530 L 1037,535 L 1043,540 L 1040,545" fill="none" stroke="#333" stroke-width="2" /><text class="text pin-label" x="1050" y="535">20k</text><polyline class="wire-gnd" points="1040,545 1040,945" /><polyline class="wire-signal" points="1200,720 1100,720 1100,700" /><path d="M 1050,700 L 1055,697 L 1060,703 L 1065,697 L 1070,703 L 1075,700" fill="none" stroke="#333" stroke-width="2" /><text class="text pin-label" text-anchor="middle" x="1062" y="690">10k</text><polyline class="wire-signal" points="1100,700 1075,700" /><polyline class="wire-signal" points="1050,700 1040,700" /><circle cx="1040" cy="700" fill="black" r="3" /><polyline class="wire-signal" points="1040,700 870,700 870,570 850,570" /><polyline class="wire-signal" points="1040,700 1040,720" /><path d="M 1028,720 L 1033,717 L 1038,723 L 1043,717 L 1048,723 L 1053,720" fill="none" stroke="#333" stroke-width="2" /><text class="text pin-label" text-anchor="middle" x="1040" y="710">20k</text><path d="M 1040,720 L 1037,725 L 1043,730 L 1037,735 L 1043,740 L 1040,745" fill="none" stroke="#333" stroke-width="2" /><text class="text pin-label" x="1050" y="735">20k</text><polyline class="wire-gnd" points="1040,745 1040,945" /><rect class="sensor-box" height="100" rx="5" ry="5" width="150" x="900" y="800" /><text class="text title" font-size="16px" text-anchor="middle" x="975.0" y="825">DS18B20</text><text class="text label" text-anchor="middle" x="975.0" y="845">Temp Probe</text><text class="text pin-label" text-anchor="start" x="905" y="834">VDD</text><circle cx="900" cy="830" fill="black" r="3" stroke="none" /><text class="text pin-label" text-anchor="start" x="905" y="854">DATA</text><circle cx="900" cy="850" fill="black" r="3" stroke="none" /><text class="text pin-label" text-anchor="start" x="905" y="874">GND</text><circle cx="900" cy="870" fill="black" r="3" stroke="none" /><polyline class="wire-3v3" points="900,830 880,830 880,200" /><polyline class="wire-gnd" points="900,870 880,870 880,945" /><polyline class="wire-signal" points="900,850 400,850 400,400 400,400" /><polyline class="wire-3v3" points="900,830 850,830" /><polyline class="wire-signal" points="900,850 850,850" /><line stroke="#333" stroke-width="2" x1="850" x2="850" y1="830" y2="845" /><path d="M 850,845 L 847,850 L 853,855 L 847,860 L 853,865 L 850,870" fill="none" stroke="#333" stroke-width="2" /><line stroke="#333" stroke-width="2" x1="850" x2="850" y1="870" y2="850" /><text class="text pin-label" x="860" y="860">4.7k Pullup</text><circle cx="850" cy="850" fill="black" r="3" /><circle cx="850" cy="830" fill="black" r="3" /></svg>